<?xml version="1.0" encoding="UTF-8" standalone="no"?>
<!-- Created with Inkscape (http://www.inkscape.org/) -->

<svg
   width="991.1571mm"
   fill="currentColor"
   height="896.28815mm"
   viewBox="0 0 991.1571 896.28815"
   version="1.1"
   id="svg1"
   xml:space="preserve"
   xmlns:inkscape="http://www.inkscape.org/namespaces/inkscape"
   xmlns:sodipodi="http://sodipodi.sourceforge.net/DTD/sodipodi-0.dtd"
   xmlns="http://www.w3.org/2000/svg"
   xmlns:svg="http://www.w3.org/2000/svg"><sodipodi:namedview
     id="namedview1"
     pagecolor="#ffffff"
     bordercolor="#000000"
     borderopacity="0.25"
     inkscape:showpageshadow="2"
     inkscape:pageopacity="0.0"
     inkscape:pagecheckerboard="0"
     inkscape:deskcolor="#d1d1d1"
     inkscape:document-units="mm" /><defs
     id="defs1" /><g
     inkscape:label="Layer 1"
     inkscape:groupmode="layer"
     id="layer1"
     transform="translate(-5.5144406,-49.561726)"><path
       style="stroke-width:8.85764"
       d="m 10.372306,871.30962 c -4.7627641,-6.05491 -4.8572663,-8.39297 -4.8572663,-120.17316 0,-127.19835 -0.3407536,-124.41545 15.2333053,-124.41545 8.409713,0 15.233297,6.53225 15.233297,14.58296 0,5.38837 0.755912,5.28004 11.18228,-1.60208 13.695442,-9.03994 27.795067,-12.98088 46.442295,-12.98088 41.328353,0 74.585823,26.24431 84.580243,66.7443 9.5581,38.73208 -10.64929,80.22935 -47.96605,98.50161 -25.40162,12.43799 -62.966102,9.71152 -84.876619,-6.1604 -9.362149,-6.78186 -9.362149,-6.78186 -9.362149,36.27311 0,40.00892 -0.343676,43.49183 -4.857266,49.22999 -2.790592,3.54767 -7.205393,6.17502 -10.376031,6.17502 -3.170647,0 -7.585438,-2.62735 -10.376039,-6.17502 z M 105.58795,769.57931 c 26.02504,-5.65499 45.22936,-29.72165 45.22936,-56.68104 0,-16.51313 -3.81633,-26.35973 -15.02516,-38.76654 -35.21847,-38.98267 -99.707564,-13.56283 -99.707564,39.3019 0,26.43537 18.986989,49.92009 45.596965,56.39821 10.125722,2.46508 11.464591,2.451 23.906399,-0.25244 z m 164.67912,26.96701 c -14.03954,-4.32793 -34.19998,-18.6294 -43.55923,-30.90016 -25.36582,-33.25673 -22.37273,-82.60019 6.83987,-112.76002 5.41264,-5.5882 16.16892,-13.4196 23.90279,-17.40306 11.72478,-6.03905 17.48145,-7.41713 34.64172,-8.29253 22.29345,-1.13732 34.83056,2.01609 50.85723,12.79212 10.19717,6.85635 11.75979,6.8552 11.75979,-0.009 0,-11.29943 16.32038,-17.69004 24.44031,-9.57024 3.20257,3.20266 3.68274,14.00314 3.68274,82.83412 0,73.70411 -0.29496,79.41817 -4.28577,83.02979 -9.41137,8.51716 -23.83728,1.91963 -23.83728,-10.90172 0,-6.20868 0,-6.20868 -11.13205,0.8521 -21.30919,13.51668 -49.89945,17.54451 -73.31012,10.32784 z m 41.97195,-28.17067 c 24.83595,-7.3755 41.11345,-29.11296 41.14179,-54.94202 0.0354,-31.00973 -21.04344,-54.7817 -51.34544,-57.90916 -33.89236,-3.49797 -63.16023,23.33653 -63.16023,57.90916 0,25.24375 14.77535,45.79233 38.92376,54.1326 15.37741,5.31105 18.99522,5.39608 34.44012,0.80959 z m 132.83127,26.56203 c -3.12639,-4.46354 -3.64828,-16.48124 -3.64828,-84.00581 0,-73.36113 0.29584,-79.06484 4.28577,-82.67583 6.65908,-6.02639 18.71133,-5.06206 21.81301,1.74531 2.56243,5.62389 2.56243,5.62389 12.25358,1.22324 23.18479,-10.52793 55.54354,-3.1326 72.38511,16.54307 14.4725,16.90782 15.81612,24.26915 15.81612,86.65424 0,61.16576 -0.95937,65.72443 -13.83121,65.72443 -13.43058,0 -14.28614,-3.50488 -14.3477,-58.77419 -0.0266,-27.6114 -1.01367,-54.33164 -2.18421,-59.37837 -5.17907,-22.32932 -31.46652,-34.12726 -49.19208,-22.07759 -16.63572,11.30891 -17.60988,15.36217 -18.49512,76.95336 -0.65989,45.91988 -1.40207,55.75594 -4.46451,59.17553 -5.21778,5.8262 -15.94199,5.24381 -20.39048,-1.10739 z m 216.39668,-0.30824 c -43.52655,-17.90511 -65.94861,-59.57528 -55.01695,-102.24565 10.18204,-39.74443 43.47898,-65.66234 84.35701,-65.66234 18.64729,0 32.74689,3.94094 46.44231,12.98088 4.80599,3.17228 9.28813,5.76783 9.96025,5.76783 0.67229,0 1.222,-22.9669 1.222,-51.03739 0,-58.76976 0.91526,-62.26153 15.98805,-60.99702 14.823,1.24353 14.54097,-1.52254 13.891,136.24607 -0.56423,119.50008 -0.74227,123.92996 -5.13336,127.13953 -10.12385,7.40038 -24.74569,0.29407 -24.74569,-12.02718 0,-5.9782 0,-5.9782 -8.1307,0.22322 -19.52242,14.89049 -55.37542,19.26183 -78.83392,9.61187 z m 43.99459,-25.70648 c 33.92797,-8.80078 52.45754,-47.19194 38.09328,-78.92471 -9.33756,-20.62795 -26.09879,-32.45078 -48.94203,-34.52214 -16.83821,-1.52679 -34.07412,5.46472 -45.99164,18.65606 -11.23654,12.43746 -15.02522,22.25651 -15.02522,38.94042 0,27.64639 15.87255,48.69561 42.04113,55.75223 13.94237,3.75971 15.68653,3.76547 29.82448,0.0983 z m 174.53132,26.53325 c -59.11311,-21.26437 -77.51345,-94.04949 -35.67348,-141.11149 26.33212,-29.61854 76.00295,-36.70368 109.29574,-15.58998 12.46093,7.90243 12.76989,7.96417 12.76989,2.54967 0,-7.98003 6.82765,-14.58296 15.07925,-14.58296 14.04574,0 14.14238,0.51374 14.94169,79.45183 0.76176,75.21106 0.17627,84.53346 -5.6727,90.38278 -8.21165,8.21157 -24.34824,0.52969 -24.34824,-11.59102 0,-5.80734 0,-5.80734 -11.13203,1.25389 -22.45953,14.24637 -51.44528,17.80404 -75.26012,9.23728 z m 56.75881,-32.31472 c 41.2109,-22.42977 39.10437,-80.57357 -3.72145,-102.71971 -11.48181,-5.93746 -30.60378,-6.84873 -43.15214,-2.05648 -42.52204,16.23934 -52.72259,69.51266 -18.85988,98.49789 18.86714,16.14952 43.30777,18.48386 65.73347,6.2783 z M 390.69283,448.88015 c -39.61447,-1.27284 -45.44785,-1.96463 -49.80128,-5.90619 -6.61391,-5.98821 -6.20965,-11.19456 1.46514,-18.86935 10.03711,-10.03713 18.1908,-13.14528 41.40061,-15.78175 21.59919,-2.45357 21.59919,-2.45357 20.18294,-13.30737 -0.77859,-5.96961 -3.33163,-13.75398 -5.6727,-17.29872 -4.25637,-6.44482 -4.25637,-6.44482 -41.1345,-6.44482 -39.13655,0 -50.50684,-2.11503 -52.96245,-9.85183 -3.22648,-10.16592 16.2986,-26.01561 35.08876,-28.48388 5.27498,-0.69267 14.86404,-1.90342 21.30886,-2.68998 11.71796,-1.43006 11.71796,-1.43006 10.93246,-13.88621 -0.9521,-15.09715 4.61572,-27.47624 17.41124,-38.71083 14.35949,-12.6078 25.81605,-28.73083 27.4145,-38.5808 0.82111,-5.06179 4.20012,-11.97855 7.56913,-15.49494 8.6023,-8.97891 28.92785,-18.6961 39.10688,-18.6961 8.28384,0 8.87385,-0.55803 14.98492,-14.17538 3.95803,-8.81956 9.86254,-17.08357 15.62754,-21.87227 9.26589,-7.69685 9.26589,-7.69685 5.39342,-15.18546 -5.40653,-10.45494 -7.34255,-34.90479 -3.66149,-46.24036 1.63601,-5.03778 6.51861,-14.541763 10.85044,-21.12007 4.58259,-6.959186 7.87586,-14.935406 7.87586,-19.074937 0,-11.215904 6.73305,-17.647174 18.4751,-17.647174 5.47039,0 11.01519,1.068941 12.32178,2.375443 1.49429,1.494374 5.56827,1.633704 10.98286,0.375565 22.48956,-5.225745 56.8008,0.374678 73.01117,11.917783 3.80578,2.709996 8.32725,3.82978 12.35473,3.059962 19.24031,-3.678048 33.43291,12.54021 24.65897,28.178558 -1.66027,2.959162 -2.89627,14.01819 -2.92948,26.21127 -0.0531,17.9556 -0.96903,22.93492 -6.18733,33.48375 -5.64383,11.40883 -5.81886,12.61692 -2.2068,15.23329 7.32518,5.306 23.21412,28.5535 31.57502,46.19807 9.64846,20.36178 13.88392,39.40137 11.73027,52.73062 -2.30449,14.26258 -12.68193,33.5974 -22.57964,42.06947 -8.07215,6.90941 -8.87359,8.65339 -8.87359,19.30763 0,23.76816 -13.04403,51.49011 -33.89466,72.03506 -17.3764,17.12165 -37.73569,27.86898 -73.91022,39.01589 -24.08952,7.42297 -25.64403,7.59303 -73.82298,8.07524 -27.06843,0.27105 -69.40693,-0.15589 -94.08548,-0.94909 z M 620.96212,393.9616 c 8.12494,-7.3576 15.27624,-16.90171 20.52378,-27.39085 7.31801,-14.62786 12.80718,-33.97243 10.33988,-36.43981 -0.5412,-0.5412 -7.23732,1.25238 -14.88005,3.98603 -16.83802,6.0224 -44.93527,8.42822 -52.31377,4.47931 -6.91348,-3.69993 -14.29314,-16.16264 -14.30404,-24.15631 -0.009,-9.31487 6.48796,-14.48853 25.43561,-20.24379 34.41939,-10.4545 47.13879,-33.11412 33.69298,-60.024 -1.93212,-3.86689 -9.88407,-13.187 -17.671,-20.7113 -13.58187,-13.12402 -14.54665,-13.62403 -23.71085,-12.28963 -20.15832,2.93525 -57.61871,-8.45201 -69.53641,-21.13784 -6.70364,-7.13563 -7.32899,-7.08018 -17.12112,1.5174 -10.4444,9.17032 -16.52331,24.73998 -14.76817,37.82547 0.72633,5.41734 0.33659,11.68855 -0.86539,13.93591 -1.20278,2.24736 -10.26566,12.06083 -20.1398,21.8077 -19.85601,19.6001 -25.70701,21.58617 -37.12738,12.60292 -6.50718,-5.11857 -6.50718,-5.11857 -11.10828,0.56335 -13.44112,16.59913 -22.29035,47.59194 -19.34085,67.73795 0.85654,5.85206 3.57991,15.2564 6.05146,20.89854 4.49366,10.25857 4.49366,10.25857 14.82823,0.73253 35.46284,-32.68851 104.57001,-38.30559 149.14548,-12.12257 16.09709,9.455 24.27748,19.02888 29.04377,33.99112 3.31135,10.3948 3.35971,13.05945 0.41454,22.84626 -3.33428,11.07905 -3.33428,11.07905 3.80383,6.98142 3.92588,-2.25374 12.74951,-9.17918 19.60808,-15.38998 z M 594.22558,185.84004 c 15.99912,-3.39115 27.16011,-9.11487 36.77172,-18.85784 14.26275,-14.45754 20.61448,-32.25086 17.92202,-50.2053 -1.32094,-8.80911 -2.35232,-10.33005 -7.0048,-10.33005 -8.98564,0 -15.95466,-7.502602 -17.48552,-18.824443 -1.26222,-9.334805 -2.33665,-10.692417 -12.66661,-16.004789 -16.58895,-8.531151 -42.5244,-9.616301 -61.22519,-2.561631 -35.77585,13.49595 -52.42326,50.636403 -36.59952,81.653483 6.49469,12.73065 23.33874,27.17835 36.64558,31.43206 21.79627,6.96751 26.38471,7.35636 43.64232,3.69851 z M 560.1636,147.06897 c -3.0341,-3.03409 -1.5128,-12.66519 2.22725,-14.10039 4.60642,-1.76763 15.41195,1.76099 16.62988,5.43053 2.12238,6.3946 -13.8081,13.7189 -18.85713,8.66986 z m 40.09599,-12.41 c -11.90787,-9.36669 -14.02821,-36.035989 -3.45395,-43.442485 7.6383,-5.350106 13.06201,-4.279482 21.60654,4.265044 21.67713,21.677131 5.09536,57.464311 -18.15259,39.177441 z m -80.3275,-1.43626 c -6.60399,-4.99013 -6.52038,-23.97667 0.14527,-32.90402 13.00426,-17.417762 26.75593,-18.922675 33.14672,-3.627384 9.07324,21.715304 -16.19895,49.446904 -33.29155,36.531404 z"
       id="path1"
       sodipodi:nodetypes="sssssssssssssssssssscsssssssssscccscssssssssssssscssssssssssssccsssssssssssssssssscsssssssssssscssssssscsssssssssssscscssssssssssscsssscssssssccsscsssssssccssssssssssssssssssscsss" /><path
       style="fill:#000000;stroke-width:5.37872"
       d="m 113.07648,945.05471 c -2.34124,-0.83528 -5.3662,-3.18778 -5.87345,-4.56922 -1.05219,-2.86536 1.84495,-4.34556 4.00508,-2.04611 0.63058,0.67052 2.30551,1.719 3.72198,2.32832 5.78833,2.49006 12.20515,-0.68913 12.84485,-6.36484 0.49505,-4.39206 -3.31848,-7.53157 -11.28879,-9.29379 -3.29296,-0.72899 -7.14456,-3.2791 -8.37587,-5.54781 -0.74777,-1.37745 -0.92246,-2.56163 -0.79507,-5.38625 0.14243,-3.15899 0.36033,-3.86406 1.70859,-5.52982 0.84989,-1.05008 2.54902,-2.44542 3.77582,-3.10107 1.92545,-1.02872 2.78264,-1.16743 6.26656,-1.01331 4.35319,0.1931 6.8784,1.10977 9.05949,3.29079 1.37442,1.37444 1.65968,3.08902 0.67726,4.07133 -0.90514,0.90552 -2.78058,0.73076 -3.52812,-0.32862 -1.78176,-2.52398 -7.25468,-3.51737 -10.40452,-1.88871 -1.97186,1.01978 -3.77216,4.32687 -3.32507,6.10823 0.53792,2.14275 2.82348,4.1064 5.77645,4.96276 1.51437,0.43934 4.064,1.1793 5.66584,1.64495 7.98766,2.32186 11.78807,10.47842 7.97756,17.12183 -1.56288,2.72461 -4.35885,4.98951 -7.14682,5.789 -2.46255,0.70684 -8.45304,0.56777 -10.74187,-0.24713 z m 35.25073,-0.25333 c -2.65151,-1.2763 -4.33781,-2.80096 -6.11347,-5.52735 -1.45404,-2.23239 -1.45404,-2.23239 -1.45404,-18.41415 0,-16.18194 0,-16.18194 1.41789,-16.34448 2.85846,-0.32774 2.86936,-0.2675 2.88145,15.48555 0.0124,16.67133 0.1977,17.57614 4.0939,20.03573 4.53418,2.86217 9.57417,1.75851 12.56101,-2.75074 1.49603,-2.25861 1.49603,-2.25861 1.49603,-16.99304 0,-16.07494 0.005,-16.10594 2.87038,-15.7775 1.41789,0.16209 1.41789,0.16209 1.55119,15.59574 0.12666,14.67251 0.0815,15.54942 -0.9119,17.79563 -1.28195,2.89822 -3.9838,5.67562 -6.73792,6.92632 -2.87604,1.30606 -8.90926,1.28967 -11.65453,-0.0354 z M 181.985,945.161 c -2.33367,-0.74847 -6.1625,-4.23599 -6.1625,-5.61424 0,-2.20635 2.6895,-3.19398 4.09294,-1.50288 0.37672,0.45352 1.59643,1.41324 2.71041,2.13169 2.86555,1.84814 7.78951,1.89031 10.34968,0.0895 2.2925,-1.61351 2.90226,-2.40884 3.51629,-4.58693 1.40646,-4.98863 -2.40463,-8.66057 -10.98626,-10.58507 -3.6423,-0.81578 -7.07558,-3.23791 -8.55918,-6.03559 -2.34451,-4.42121 -0.65919,-9.89364 3.99581,-12.97397 2.47011,-1.63477 7.66135,-2.16419 11.28112,-1.1507 2.77949,0.77859 6.30172,3.70382 6.30172,5.23442 0,2.36916 -2.82374,3.18893 -4.41932,1.28303 -1.39201,-1.66284 -3.516,-2.53957 -6.20312,-2.56039 -3.15332,-0.0266 -5.48175,1.27816 -6.69682,3.74626 -1.70754,3.46856 0.28407,6.61869 5.11367,8.08915 1.3023,0.39771 3.66907,1.10171 5.25947,1.56736 5.17691,1.51563 9.04983,5.33062 9.68042,9.53579 0.8985,5.99175 -2.20377,11.24371 -7.80991,13.22163 -2.41806,0.85299 -8.95212,0.91712 -11.46442,0.1116 z m 36.01729,-0.16475 c -0.16848,-0.43934 -0.3063,-8.71867 -0.3063,-18.39928 0,-17.6012 0,-17.6012 -6.37837,-17.74239 -5.42989,-0.12046 -6.46105,-0.27281 -6.93431,-1.02403 -0.40506,-0.64395 -0.40479,-1.12253 7.5e-4,-1.76586 0.50692,-0.80339 1.91508,-0.89471 15.7516,-1.01633 15.19493,-0.13286 15.19493,-0.13286 15.51498,1.14175 0.60657,2.41637 -0.32136,2.77546 -7.16965,2.77546 -6.24449,0 -6.24449,0 -6.24449,17.61635 0,9.68902 -0.13783,17.97526 -0.3063,18.41433 -0.19336,0.50311 -0.91776,0.79896 -1.96402,0.79896 -1.0463,0 -1.77076,-0.29496 -1.96404,-0.79896 z m 16.67862,0.46148 c -0.47831,-0.47831 -0.41728,-3.4055 0.0833,-3.97717 0.23066,-0.26218 0.70622,-1.50084 1.05675,-2.74959 0.35058,-1.24857 0.94983,-2.95128 1.33175,-3.78363 0.38203,-0.83262 2.72801,-7.18922 5.21347,-14.12608 6.11137,-17.0569 5.80487,-16.39621 7.60712,-16.39621 0.96881,0 1.67619,0.34988 2.02482,1.001 0.49116,0.91819 4.36023,11.50351 6.64111,18.16987 0.52216,1.52617 1.2642,3.45589 1.64897,4.28834 0.38477,0.83261 0.98786,2.53514 1.34019,3.7838 0.35235,1.24867 0.7978,2.49724 0.98998,2.77466 0.19212,0.27636 0.73997,1.75328 1.2173,3.27928 0.47734,1.52617 1.19785,3.51002 1.60114,4.40854 1.03345,2.30263 0.21373,3.78088 -1.97796,3.56688 -1.4074,-0.13729 -1.70039,-0.45085 -2.50978,-2.6782 -0.504,-1.38737 -1.24754,-3.23782 -1.65231,-4.11225 -0.40488,-0.87425 -0.73607,-1.77489 -0.73607,-2.00112 0,-0.22587 -0.37149,-1.38374 -0.82527,-2.57243 -0.82526,-2.161 -0.82526,-2.161 -7.73264,-2.161 -6.90734,0 -6.90734,0 -8.57051,4.66674 -2.26618,6.35854 -2.74159,7.59064 -3.21157,8.32432 -0.42374,0.66167 -2.9615,0.87248 -3.53969,0.29496 z m 20.05494,-19.21311 c -0.80082,-1.86737 -2.0122,-5.16206 -3.61723,-9.83766 -0.45245,-1.3181 -0.97037,-2.39643 -1.15097,-2.39643 -0.1806,0 -0.61277,0.96504 -0.96047,2.14408 -0.34758,1.1793 -0.92813,2.82532 -1.29,3.65759 -0.36184,0.83173 -1.06828,2.76216 -1.56986,4.28834 -0.50161,1.52608 -1.11992,3.05854 -1.37412,3.40523 -0.36237,0.49514 0.75121,0.63066 5.15586,0.63066 5.61806,0 5.61806,0 4.80676,-1.89199 z m 18.257,18.75145 c -0.16838,-0.43934 -0.30629,-9.38786 -0.30629,-19.88665 0,-10.49861 0.13773,-19.44749 0.30629,-19.88639 0.41454,-1.0801 3.51361,-1.0801 3.92805,0 0.16847,0.43934 0.3063,9.38778 0.3063,19.88639 0,10.49879 -0.13783,19.44758 -0.3063,19.88665 -0.19336,0.50223 -0.91776,0.79808 -1.96401,0.79808 -1.0463,0 -1.77075,-0.29496 -1.96404,-0.79808 z m 14.44795,0.21524 c -0.88989,-0.8893 -0.91161,-39.29206 -0.0221,-40.18102 0.33296,-0.33216 1.24408,-0.60497 2.02469,-0.60497 1.45599,0 2.60565,1.50952 7.71219,10.12561 0.83244,1.40456 2.10541,3.50355 2.82888,4.66435 0.7234,1.16097 3.04166,4.94859 5.15156,8.41698 2.10991,3.46856 4.05866,6.64686 4.33058,7.06299 0.32924,0.504 0.50436,-4.15999 0.52411,-13.95858 0.0168,-8.09341 0.1675,-15.07438 0.33588,-15.51337 0.41454,-1.08001 3.5136,-1.08001 3.92806,0 0.4729,1.23228 0.34659,39.22165 -0.13287,39.97783 -0.25395,0.40125 -1.10361,0.60232 -2.12183,0.50488 -1.45497,-0.14083 -1.91719,-0.54474 -3.22634,-2.82541 -0.84042,-1.46408 -3.09689,-5.20998 -5.01433,-8.32432 -1.91744,-3.11426 -4.07418,-6.63952 -4.79275,-7.83397 -0.71862,-1.19428 -2.02862,-3.35111 -2.91117,-4.79261 -0.88258,-1.44176 -2.24472,-3.7381 -3.02701,-5.10324 -1.42234,-2.48209 -1.42234,-2.48209 -1.6746,13.11684 -0.25227,15.5992 -0.25227,15.5992 -1.76823,15.74801 -0.83368,0.0797 -1.79866,-0.13375 -2.14412,-0.4792 z m 34.51873,0.24536 c -0.73191,-0.73164 -0.25466,-3.27281 1.46399,-7.79313 0.99017,-2.6045 2.14337,-5.75694 2.56265,-7.0056 0.41932,-1.24866 0.96791,-2.72426 1.21916,-3.27928 0.2512,-0.55537 1.94334,-5.20891 3.76019,-10.34227 4.42095,-12.4907 4.4822,-12.6124 6.34662,-12.6124 1.804,0 1.57054,-0.48274 6.52522,13.50587 1.93891,5.47438 3.74995,10.40737 4.02457,10.96231 0.27459,0.55537 0.92539,2.25781 1.44622,3.78389 0.52074,1.52609 1.62271,4.7353 2.4487,7.13174 1.68465,4.88773 1.51534,5.98528 -0.92343,5.98528 -1.27939,0 -1.63101,-0.29407 -2.26779,-1.8919 -0.41445,-1.04051 -0.97036,-2.34595 -1.23525,-2.90097 -0.41428,-0.86805 -1.92898,-5.10696 -2.83926,-7.94575 -0.25156,-0.7839 -1.05881,-0.88311 -7.24611,-0.88311 -6.96304,0 -6.96304,0 -8.08032,3.40533 -0.61445,1.87303 -1.27319,3.63234 -1.46377,3.90985 -0.19052,0.27636 -0.65528,1.52608 -1.03272,2.77474 -0.37742,1.24867 -0.90016,2.55402 -1.16164,2.90097 -0.5001,0.66255 -2.97261,0.86894 -3.54703,0.29496 z m 20.47673,-17.95188 c -0.27476,-0.34722 -0.89006,-1.87923 -1.36741,-3.40532 -0.47733,-1.52608 -1.16695,-3.4559 -1.53249,-4.28834 -0.36547,-0.83262 -0.94906,-2.47828 -1.29674,-3.65758 -0.34767,-1.17922 -0.77983,-2.14409 -0.96049,-2.14409 -0.18061,0 -0.69754,1.07833 -1.14884,2.39635 -0.85945,2.51035 -2.88579,7.97383 -3.83569,10.34227 -0.55644,1.38747 -0.55644,1.38747 5.04236,1.38747 4.40911,0 5.49265,-0.13375 5.09927,-0.63067 z m 121.7925,17.95188 c -0.76708,-0.76796 -0.20993,-3.41932 1.95869,-9.31541 1.26239,-3.43198 2.64772,-7.37514 3.07856,-8.7626 0.43137,-1.38737 0.94954,-2.7495 1.15247,-3.02692 0.20284,-0.27636 1.91236,-4.87472 3.79869,-10.21623 3.4295,-9.71152 3.4295,-9.71152 5.15462,-9.71152 1.47098,0 1.82485,0.24181 2.40263,1.63955 0.60144,1.45664 7.26327,19.88886 10.07345,27.87376 0.58637,1.66471 1.20154,3.25395 1.36815,3.53146 0.70152,1.16983 2.03956,6.25456 1.87436,7.12588 -0.12312,0.64661 -0.69001,0.99569 -1.78933,1.10225 -1.42307,0.13818 -1.72113,-0.0709 -2.56872,-1.76586 -0.52703,-1.05689 -1.7306,-4.13493 -2.67412,-6.83979 -1.71555,-4.91794 -1.71555,-4.91794 -8.61175,-4.91882 -6.89639,-8.9e-4 -6.89639,-8.9e-4 -7.75328,2.57846 -0.47122,1.41864 -1.16903,3.17812 -1.55079,3.90994 -0.38177,0.73164 -0.69533,1.59535 -0.6971,1.91927 -0.002,0.32331 -0.44908,1.62919 -0.99418,2.90088 -0.84768,1.97889 -1.19968,2.31211 -2.43842,2.31211 -0.79542,0 -1.59872,-0.15146 -1.78367,-0.33659 z m 20.34813,-17.50917 c 0,-0.10275 -1.04618,-3.11143 -2.32486,-6.68469 -2.23931,-6.25722 -3.22091,-8.30227 -3.22782,-6.72366 -10e-4,0.40302 -0.30204,1.30526 -0.66875,2.00652 -0.36582,0.70064 -0.79187,1.7229 -0.94848,2.27022 -0.15501,0.5474 -0.98408,2.86828 -1.84115,5.15736 -1.55859,4.1623 -1.55859,4.1623 3.72597,4.1623 2.90646,0 5.28456,-0.0895 5.28456,-0.18779 z m 17.88793,17.21386 c -0.13287,-0.34722 -0.18336,-9.59868 -0.10984,-20.55851 0.13198,-19.92669 0.13198,-19.92669 1.93708,-20.07797 1.76072,-0.14793 1.86258,-0.0443 4.15229,3.78363 1.29109,2.16427 3.48335,5.75135 4.87197,7.97117 1.38843,2.21981 3.10292,5.05762 3.80985,6.30638 0.70684,1.24848 1.94345,3.29176 2.74799,4.54042 0.80428,1.24858 2.21618,3.51879 3.13685,5.04505 1.67409,2.77475 1.67409,2.77475 1.80811,-11.8137 0.0895,-10.06512 0.31444,-14.80476 0.71304,-15.28688 0.32862,-0.39682 1.25601,-0.63332 2.1362,-0.54652 1.55664,0.15147 1.55664,0.15147 1.55664,20.58402 0,20.43237 0,20.43237 -1.5136,20.56381 -0.83261,0.0709 -1.7446,-0.0354 -2.02724,-0.25244 -0.42871,-0.31976 -4.61803,-7.06663 -11.29944,-18.19475 -0.71746,-1.19445 -2.02583,-3.3512 -2.9084,-4.79287 -0.88311,-1.4415 -2.2448,-3.73819 -3.0271,-5.1036 -1.42227,-2.48271 -1.42227,-2.48271 -1.69314,12.86467 -0.14792,8.44098 -0.31976,15.40415 -0.37822,15.4735 -0.37645,0.442 -3.71508,0.009 -3.91304,-0.50577 z m 85.66095,0.30913 c -0.34722,-0.14615 -0.63067,-0.60764 -0.63067,-1.02527 0,-0.41809 1.80537,-5.79042 4.01198,-11.93984 2.20653,-6.14942 4.4965,-12.54287 5.08898,-14.20793 0.59258,-1.66471 1.36355,-3.7079 1.71352,-4.54043 0.34987,-0.83262 1.26115,-3.2729 2.02503,-5.42336 1.34158,-3.77681 1.44406,-3.90976 3.00894,-3.90976 1.45115,0 1.72777,0.2489 2.65411,2.39617 0.56866,1.3181 1.30827,3.30461 1.64318,4.41447 0.3357,1.10986 0.82022,2.47199 1.07824,3.02701 1.75381,3.77141 10.19347,28.08564 10.2444,29.51323 0.062,1.7252 0.0177,1.76577 -1.89262,1.76577 -1.95532,0 -1.95532,0 -4.29303,-6.55846 -2.33762,-6.55847 -2.33762,-6.55847 -9.17723,-6.69833 -7.9849,-0.1621 -6.90506,-0.99702 -9.97867,7.7073 -1.85426,5.25099 -2.03779,5.55472 -3.41267,5.64755 -0.79896,0.0443 -1.73672,-0.0177 -2.08358,-0.16741 z m 20.54495,-17.46134 c -0.005,-0.0709 -1.20455,-3.45439 -2.66022,-7.52245 -2.64675,-7.39639 -2.64675,-7.39639 -5.15772,-0.27635 -1.38108,3.91525 -2.58661,7.30038 -2.67908,7.52244 -0.0895,0.22321 2.23452,0.40391 5.17109,0.40391 2.93667,0 5.33319,-0.062 5.32593,-0.12578 z m 17.91361,17.184 c -0.13995,-0.36582 -0.19487,-9.51745 -0.12312,-20.33839 0.13286,-19.67424 0.13286,-19.67424 11.3694,-19.81003 12.21966,-0.14704 12.21478,-0.14792 11.51016,2.65951 -0.31622,1.26 -0.31622,1.26 -9.64004,1.26 -9.32365,0 -9.32365,0 -9.32365,6.05402 0,6.05411 0,6.05411 5.42336,6.06182 2.98281,0.004 5.72532,0.1993 6.09441,0.43314 0.38088,0.24093 0.59967,1.05556 0.50489,1.88402 -0.16741,1.45876 -0.16741,1.45876 -6.08405,1.60075 -5.91744,0.14172 -5.91744,0.14172 -6.05393,10.34236 -0.13641,10.2002 -0.13641,10.2002 -1.77959,10.35849 -1.01686,0.0974 -1.74026,-0.0983 -1.89802,-0.50577 z m 28.23976,-0.0354 c -0.13286,-0.34722 -0.18335,-9.4852 -0.11072,-20.30615 0.13287,-19.67415 0.13287,-19.67415 11.36941,-19.81012 12.21965,-0.14703 12.21487,-0.14792 11.51015,2.65951 -0.31621,1.26018 -0.31621,1.26018 -9.38777,1.26018 -9.07138,0 -9.07138,0 -9.07138,6.03746 0,6.03746 0,6.03746 5.67571,6.18015 5.67563,0.14261 5.67563,0.14261 5.67563,1.90829 0,1.76586 0,1.76586 -5.67563,1.90838 -5.67571,0.14261 -5.67571,0.14261 -5.67571,9.86308 0,6.88761 -0.17715,9.89673 -0.60498,10.3258 -0.79807,0.7963 -3.39575,0.77858 -3.70462,-0.0266 z m 36.09366,-0.16918 c -2.2346,-0.96406 -6.54305,-5.40785 -7.7887,-8.03264 -1.44725,-3.04995 -2.78856,-8.7502 -2.78856,-11.8502 0,-3.08848 1.33555,-8.77784 2.78378,-11.8595 1.20871,-2.57164 5.72974,-7.13315 8.01723,-8.08898 2.65711,-1.1103 8.09057,-0.95326 10.69879,0.31002 3.34837,1.62104 6.85812,5.81673 8.48208,10.14032 4.21659,11.22556 0.12667,25.18839 -8.55799,29.22349 -2.51575,1.16859 -8.30944,1.2531 -10.84663,0.15767 z m 8.3672,-4.04546 c 5.67483,-2.69272 9.18299,-11.27507 7.86639,-19.24288 -0.60675,-3.66813 -2.34914,-7.63963 -4.29738,-9.79186 -3.67831,-4.06309 -9.2348,-4.10188 -13.04456,-0.0895 -7.59924,8.00076 -5.69299,24.44524 3.37857,29.14626 1.94177,1.00622 3.94758,0.9994 6.09698,-0.0177 z m 20.61962,4.21518 c -0.13286,-0.34722 -0.18335,-9.48521 -0.11072,-20.30615 0.13287,-19.67425 0.13287,-19.67425 7.95204,-19.82775 8.70671,-0.17184 10.47478,0.15589 13.25777,2.45826 3.00708,2.48678 4.03217,4.98579 3.81436,9.29955 -0.15412,3.05288 -0.41188,3.92367 -1.63069,5.52248 -0.79541,1.04387 -2.39944,2.50175 -3.5629,3.2395 -2.1152,1.34132 -2.1152,1.34132 -1.21633,2.84774 0.76796,1.28604 3.50285,6.05092 6.55041,11.41068 0.44997,0.7901 1.08975,1.76515 1.42395,2.16773 0.33482,0.40302 0.53412,1.36984 0.44466,2.14966 -0.14084,1.23077 -0.4048,1.43822 -2.00183,1.57135 -1.76586,0.14704 -1.90493,0.0354 -3.48221,-2.77475 -0.90357,-1.61049 -3.3334,-5.82275 -5.39926,-9.36058 -3.75626,-6.43242 -3.75626,-6.43242 -7.743,-6.43242 -3.98656,0 -3.98656,0 -3.98656,8.72797 0,6.11567 -0.18158,8.90893 -0.60498,9.3333 -0.79719,0.7963 -3.39584,0.77859 -3.70489,-0.0266 z m 14.45754,-22.58558 c 1.90616,-0.36051 3.16926,-0.96708 4.23085,-2.02778 1.34335,-1.34247 1.51351,-1.85107 1.51351,-4.52032 0,-2.66934 -0.17007,-3.17777 -1.51351,-4.52024 -1.77419,-1.77338 -5.00058,-2.54267 -10.66327,-2.54267 -3.7149,0 -3.7149,0 -3.7149,7.06291 0,7.06299 0,7.06299 3.7149,7.06299 2.04319,0 4.93769,-0.23207 6.43242,-0.51462 z m 55.29349,22.90507 c -0.84059,-0.84059 -0.1745,-3.65555 2.92647,-12.38316 1.80785,-5.08766 3.51038,-9.70426 3.78346,-10.25937 0.2737,-0.55537 0.91916,-2.25746 1.43441,-3.78363 0.5164,-1.52617 1.90598,-5.45445 3.08928,-8.7293 2.15161,-5.95473 2.15161,-5.95473 3.98151,-5.80193 1.82981,0.15235 1.82981,0.15235 7.92467,17.05371 3.35217,9.29539 6.26784,17.35487 6.47972,17.90989 1.21473,3.18468 1.36682,3.79444 1.21456,4.871 -0.12312,0.8707 -0.54298,1.22581 -1.58543,1.34547 -0.78036,0.0895 -1.7245,-0.0895 -2.09918,-0.40302 -0.37467,-0.3109 -1.66647,-3.39124 -2.8704,-6.84501 -2.18899,-6.27972 -2.18899,-6.27972 -9.0457,-6.28184 -7.62085,-0.002 -6.76901,-0.80428 -10.71659,10.08788 -1.06434,2.93693 -1.34344,3.29496 -2.67253,3.42933 -0.81579,0.0895 -1.64611,-0.009 -1.84425,-0.20993 z m 20.19295,-17.97579 c -0.13198,-0.34722 -1.0933,-3.01435 -2.13709,-5.92789 -3.15093,-8.79511 -2.72452,-8.03902 -3.5497,-6.29486 -0.39151,0.82642 -1.61882,4.05618 -2.72851,7.17779 -2.01786,5.67562 -2.01786,5.67562 3.31825,5.67562 4.06026,0 5.27916,-0.15058 5.09705,-0.63066 z m -449.57708,16.98568 c -0.16847,-0.43934 -0.30629,-9.24755 -0.30629,-19.57477 0,-13.93113 0.15625,-18.93277 0.60542,-19.38185 0.41693,-0.41631 2.95549,-0.60587 8.1538,-0.60587 7.16259,0 7.6596,0.0709 9.72347,1.27453 4.96752,2.91133 6.54959,9.74846 3.352,14.48632 -1.55325,2.30139 -1.55325,2.30139 0.16307,3.96495 1.83702,1.78056 3.73184,6.10974 3.73184,8.52619 0,4.32634 -3.90949,10.11685 -7.83923,11.61104 -0.71907,0.2737 -4.9008,0.49603 -9.29266,0.49603 -6.81606,0 -8.03003,-0.11603 -8.29141,-0.79807 z m 16.06534,-4.08488 c 4.05185,-1.93211 5.81211,-7.7391 3.38092,-11.15328 -2.27541,-3.19548 -3.73186,-3.80081 -9.74303,-4.04856 -5.46893,-0.22498 -5.46893,-0.22498 -5.46893,7.91165 0,8.13681 0,8.13681 5.02788,8.13681 3.66468,0 5.50921,-0.22942 6.80316,-0.84679 z m -1.2838,-19.99259 c 4.42593,-1.55079 5.08588,-7.6662 1.10854,-10.27221 -0.92284,-0.60409 -2.7812,-0.91419 -6.47505,-1.0785 -5.18073,-0.2303 -5.18073,-0.2303 -5.18073,5.88971 0,6.12019 0,6.12019 4.41437,6.09167 2.42791,-0.0177 5.18771,-0.29939 6.13287,-0.63067 z m 18.51553,24.07721 c -0.16847,-0.43934 -0.3063,-9.27431 -0.3063,-19.6343 0,-10.3599 0.13774,-19.1954 0.3063,-19.63439 0.41454,-1.07983 3.51359,-1.07983 3.92804,0 0.16848,0.43934 0.3063,8.7254 0.3063,18.41443 0,17.61626 0,17.61626 9.09183,17.61626 9.09183,0 9.09183,0 9.65969,1.24627 0.4342,0.95343 0.41711,1.42803 -0.0726,2.01804 -0.9773,1.17744 -22.46071,1.15273 -22.91321,-0.0266 z m 29.69333,0.17626 c -0.13544,-0.35253 -0.18681,-9.38157 -0.114,-20.06362 0.13224,-19.4218 0.13224,-19.4218 11.48351,-19.4218 11.35125,0 11.35125,0 11.51618,1.16283 0.34545,2.43673 -0.36051,2.6208 -10.06441,2.6208 -9.01929,0 -9.01929,0 -9.01929,6.05402 0,6.05411 0,6.05411 5.42335,6.06182 2.9829,0.004 5.72541,0.19929 6.09441,0.43314 0.38177,0.24181 0.59878,1.05556 0.50489,1.88402 -0.16741,1.45885 -0.16741,1.45885 -6.09441,1.60093 -5.92788,0.14172 -5.92788,0.14172 -5.92788,8.19819 0,8.05594 0,8.05594 9.01919,8.05594 9.70311,0 10.40995,0.18512 10.06441,2.6208 -0.16386,1.16301 -0.16386,1.16301 -11.40209,1.2988 -8.72809,0.1054 -11.29222,-0.005 -11.48349,-0.50578 z m 116.54775,0.0177 c -0.14084,-0.36405 -0.19487,-9.40239 -0.12224,-20.08444 0.13198,-19.42198 0.13198,-19.42198 8.70875,-19.56432 9.97955,-0.16476 11.54913,0.21612 15.09653,3.66281 4.50827,4.38143 6.72817,11.08003 6.19167,18.68316 -0.47566,6.75582 -3.41392,12.41151 -8.25542,15.89673 -2.43824,1.75532 -2.43824,1.75532 -11.90175,1.91201 -7.46159,0.12401 -9.51718,0.0177 -9.71781,-0.50577 z m 18.15649,-4.58516 c 7.14918,-4.04918 9.53374,-16.42987 4.78436,-24.84029 -2.8247,-5.00226 -4.61563,-5.89299 -12.45632,-6.19503 -6.18618,-0.23739 -6.18618,-0.23739 -6.18618,15.97378 0,16.21215 0,16.21215 5.92789,16.20391 5.20661,-0.005 6.17156,-0.14615 7.93025,-1.14237 z m 196.32029,4.38861 c -0.16741,-0.43934 -0.30647,-9.24747 -0.30647,-19.5746 0,-13.93139 0.15501,-18.93286 0.60498,-19.38203 0.42251,-0.42251 3.16607,-0.60498 9.10114,-0.60498 7.5088,0 8.72619,0.11692 10.47965,1.01217 2.82169,1.43945 5.2618,3.71587 6.80409,6.34756 4.67312,7.97401 4.52201,18.57253 -0.37379,26.25654 -1.49535,2.34639 -5.00112,5.40626 -7.11544,6.21001 -0.79187,0.30027 -5.21892,0.53411 -10.1459,0.53411 -7.50614,0 -8.78527,-0.11249 -9.04817,-0.79896 z m 17.79767,-4.21721 c 2.39147,-1.22006 4.87312,-4.00472 6.27475,-7.04086 0.89294,-1.93406 1.07426,-3.29194 1.08533,-8.12396 0.009,-5.41185 -0.0895,-5.98821 -1.42829,-8.57642 -3.17671,-6.11478 -5.07384,-7.17921 -13.31499,-7.4708 -6.18007,-0.2179 -6.18007,-0.2179 -6.18007,15.98637 0,16.20488 0,16.20488 5.82186,16.20488 4.76728,0 6.16944,-0.17715 7.74141,-0.97921 z m 55.78376,4.3832 c -0.13287,-0.34722 -0.18335,-9.37183 -0.11072,-20.05388 0.13286,-19.42198 0.13286,-19.42198 8.2043,-19.54537 8.07189,-0.12401 8.07189,-0.12401 10.40455,1.34858 3.26546,2.06082 4.66293,5.03353 4.38905,9.33569 -0.15147,2.3773 -0.54475,3.71117 -1.5368,5.21024 -1.33326,2.01485 -1.33326,2.01485 0.0709,3.35475 0.76973,0.73784 1.91316,2.37012 2.54205,3.62933 0.95424,1.91086 1.10898,2.88856 0.93564,5.91124 -0.2675,4.65575 -1.97951,7.62776 -5.69051,9.87689 -2.58156,1.56461 -2.58156,1.56461 -10.77098,1.56461 -6.09592,0 -8.25161,-0.16121 -8.43204,-0.63243 z m 15.54206,-4.03466 c 0.62093,-0.34722 1.66055,-1.08453 2.31132,-1.63955 3.85139,-3.28476 3.33898,-9.34224 -1.03511,-12.23692 -1.71315,-1.1336 -2.63993,-1.33024 -7.23651,-1.53468 -5.27172,-0.23472 -5.27172,-0.23472 -5.27172,7.90377 0,8.13805 0,8.13805 5.05178,8.13805 3.10354,0 5.48705,-0.24359 6.18024,-0.63067 z m -0.63775,-20.20845 c 1.34725,-0.45882 2.04665,-1.16805 2.95013,-2.98963 1.18445,-2.38766 1.18445,-2.38766 0.11781,-4.58905 -1.39473,-2.88095 -2.79787,-3.48434 -8.74445,-3.75981 -4.919,-0.22764 -4.919,-0.22764 -4.919,5.88484 0,6.11275 0,6.11275 4.41447,6.08432 2.42788,-0.0177 5.2091,-0.29939 6.18016,-0.63067 z m 18.39258,24.24329 c -0.13287,-0.34722 -0.18336,-9.4853 -0.10984,-20.30606 0.13198,-19.67434 0.13198,-19.67434 1.84514,-19.83794 1.03014,-0.0992 1.88154,0.10275 2.13637,0.50489 0.23296,0.36759 0.42783,8.67075 0.43137,18.45171 0.005,17.78367 0.005,17.78367 8.75835,17.78367 7.98322,0 8.82726,0.0895 9.62569,0.96699 0.69798,0.7715 0.76176,1.17957 0.31267,2.01795 -0.54385,1.01606 -0.93085,1.05114 -11.65958,1.05114 -8.42344,0 -11.15549,-0.15236 -11.33947,-0.63244 z m 29.64547,0.0354 c -0.95539,-0.95539 -0.87868,-38.41259 0.0797,-39.20819 0.48451,-0.40302 3.93527,-0.535 11.42273,-0.44022 9.57927,0.12135 10.78799,0.2303 11.28481,1.01925 0.40568,0.64395 0.40568,1.12226 1.8e-4,1.76586 -0.4916,0.77947 -1.63202,0.89852 -9.70922,1.02013 -9.1526,0.1373 -9.1526,0.1373 -9.1526,6.18025 0,6.04268 0,6.04268 5.48766,6.04268 6.03294,0 7.00427,0.41985 6.4148,2.76819 -0.31711,1.26195 -0.34368,1.26789 -6.11036,1.26789 -5.7921,0 -5.7921,0 -5.7921,8.06045 0,8.06064 0,8.06064 9.1526,8.1982 8.0772,0.12134 9.21806,0.24181 9.70922,1.0204 0.40479,0.64306 0.40479,1.12226 -1.8e-4,1.76568 -0.49603,0.78921 -1.70881,0.89763 -11.36436,1.01863 -7.98153,0.10009 -10.96877,-0.0266 -11.4229,-0.48009 z"
       id="path2" /></g></svg>
